<svg width="112" height="28" viewBox="0 0 112 28" fill="none" xmlns="http://www.w3.org/2000/svg">
    <g clip-path="url(#clip0_22391_186179)">
        <rect y="0.000244141" width="28" height="28" rx="4.55088" fill="#C2D8FA"/>
        <circle cx="10.4451" cy="4.31531" r="0.393076" transform="rotate(-31.63 10.4451 4.31531)" fill="#6498EC" fill-opacity="0.3"/>
        <circle cx="7.74054" cy="2.5518" r="1.1685" transform="rotate(-31.63 7.74054 2.5518)" fill="#6498EC" fill-opacity="0.3"/>
        <circle cx="10.6036" cy="1.16862" r="0.848969" transform="rotate(-31.63 10.6036 1.16862)" fill="#6498EC" fill-opacity="0.3"/>
        <path d="M16.0716 1.05736L10.829 11.4292L8.70558 8.25652C7.72569 6.79243 5.81224 6.78617 5.40592 8.19573L1.37943 18.9373L-1.23883 15.0252C-1.92547 13.9993 -3.58516 11.2694 -4.35962 11.7877L-12.4225 17.184C-13.197 17.7024 -10.7269 21.0735 -10.0402 22.0995L3.44909 42.2544C4.13572 43.2803 5.32015 43.6918 6.09462 43.1734L33.2053 25.0287C33.9798 24.5104 34.051 23.2585 33.3643 22.2326L19.2756 1.18215C18.2957 -0.282016 16.4779 -0.352203 16.0716 1.05736Z" fill="#6498EC" fill-opacity="0.19"/>
        <path d="M26.0141 -0.292214L18.1878 8.15314L17.1126 6.42245C16.6165 5.62379 14.8373 6.05718 14.0586 7.13488L7.25923 15.5603L5.93353 13.4263C5.58586 12.8666 4.81657 11.3392 3.94845 11.8785L-5.08948 17.4931C-5.9576 18.0324 -4.61617 19.8224 -4.2685 20.3821L2.56155 31.3765C2.90921 31.9361 3.89478 31.9526 4.7629 31.4133L35.1521 12.5347C36.0202 11.9954 36.4422 11.1045 36.0945 10.5449L28.961 -0.938053C28.4648 -1.73675 26.7928 -1.36992 26.0141 -0.292214Z" fill="#77A6FF"/>
        <circle cx="2.70635" cy="6.55795" r="1.39633" transform="rotate(-31.63 2.70635 6.55795)" fill="#6498EC"/>
        <circle cx="0.697381" cy="9.65922" r="0.848969" transform="rotate(-31.63 0.697381 9.65922)" fill="#6498EC"/>
        <path d="M5.52714 22.8155C5.70398 23.102 5.93418 23.2639 6.21772 23.3011C6.50825 23.334 6.8177 23.2491 7.14609 23.0464C7.43955 22.8652 7.62595 22.6826 7.70531 22.4985C7.78466 22.3144 7.81286 22.0944 7.78991 21.8383C7.76859 21.6006 7.83479 21.4343 7.9885 21.3394L10.2523 19.9417C10.3152 19.9029 10.3827 19.895 10.4548 19.918C10.5296 19.9298 10.5864 19.9671 10.6252 20.03C10.8883 20.4562 11.0039 20.9638 10.9719 21.553C10.9356 22.1351 10.7081 22.7435 10.2894 23.3784C9.8734 24.0019 9.24617 24.5725 8.40773 25.0902C7.66012 25.5517 6.92385 25.8519 6.19892 25.9906C5.47666 26.1181 4.79985 26.0534 4.1685 25.7966C3.53283 25.5329 2.99717 25.0482 2.56153 24.3424L1.79808 23.1057C1.36244 22.4 1.1713 21.7074 1.22468 21.0279C1.27374 20.3414 1.51921 19.7073 1.96111 19.1257C2.40568 18.5328 3.00177 18.0055 3.74938 17.544C4.58782 17.0263 5.38111 16.7248 6.12925 16.6392C6.88006 16.5424 7.52594 16.6117 8.06689 16.8471C8.60353 17.0755 9.00341 17.4028 9.26652 17.829C9.30534 17.8919 9.31539 17.9629 9.29667 18.042C9.28063 18.1098 9.24117 18.1631 9.17829 18.2019L6.9145 19.5995C6.76078 19.6944 6.58244 19.6791 6.37946 19.5535C6.16087 19.4183 5.95151 19.3449 5.75138 19.3333C5.55126 19.3218 5.30447 19.4066 5.01101 19.5877C4.68263 19.7905 4.46806 20.0291 4.36732 20.3036C4.27356 20.5738 4.3151 20.8521 4.49195 21.1386L5.52714 22.8155Z" fill="white"/>
        <path d="M23.7468 5.6294C23.8237 5.58195 23.9073 5.56892 23.9977 5.59031C24.0881 5.6117 24.157 5.66082 24.2045 5.73768L28.3841 12.5083C28.4315 12.5851 28.4445 12.6688 28.4231 12.7592C28.4018 12.8496 28.3526 12.9185 28.2758 12.966L26.2216 14.2342C26.1447 14.2816 26.0611 14.2947 25.9707 14.2733C25.8803 14.2519 25.8114 14.2028 25.7639 14.1259L22.8072 9.33616L20.7111 10.6303L23.6678 15.42C23.7153 15.4968 23.7283 15.5805 23.7069 15.6709C23.6855 15.7613 23.6364 15.8302 23.5595 15.8777L21.5054 17.1459C21.4285 17.1933 21.347 17.2098 21.2609 17.1954C21.1705 17.1741 21.0995 17.1214 21.0477 17.0376L16.8681 10.267C16.8207 10.1901 16.8077 10.1065 16.829 10.0161C16.8504 9.92568 16.8996 9.85675 16.9764 9.8093L23.7468 5.6294Z" fill="white"/>
        <path d="M14.9081 17.2467C14.8305 17.2946 14.6059 17.3834 14.5139 17.3605C14.4219 17.3376 14.3028 17.3076 14.2538 17.2282L13.9926 16.8041C13.9436 16.7248 13.9381 16.5519 13.9589 16.4594C13.9796 16.3668 14.1673 16.2177 14.2448 16.1699L15.6644 15.2955C15.4784 15.0415 15.0707 14.6283 14.5051 14.574C14.2256 14.5472 13.9308 14.6295 13.6207 14.821C13.0426 15.1779 12.7585 15.6324 12.7683 16.1845C12.7672 16.3247 12.7554 16.4317 12.7327 16.5054C12.7101 16.5792 12.6565 16.6422 12.5719 16.6944L10.4994 17.9739C10.436 18.0131 10.3662 18.0263 10.2901 18.0134C10.2166 17.989 10.1598 17.9444 10.1198 17.8794C9.85692 17.4536 9.75269 16.9299 9.80708 16.3083C9.85702 15.6795 10.0934 15.0452 10.5163 14.4054C10.9347 13.7583 11.5351 13.1933 12.3176 12.7102C13.0719 12.2445 13.8151 11.9501 14.5472 11.827C15.2819 11.6924 15.9735 11.7638 16.6218 12.0413C17.2657 12.3115 17.8126 12.8111 18.2626 13.5399L19.0511 14.8173C19.501 15.5461 19.7047 16.2625 19.6622 16.9665C19.6153 17.6633 19.3693 18.3135 18.9241 18.9173C18.4816 19.5094 17.8831 20.0383 17.1289 20.504C16.3464 20.9871 15.5744 21.2743 14.813 21.3657C14.0471 21.4498 13.3741 21.3769 12.7941 21.147C12.2095 20.9099 11.7859 20.5784 11.523 20.1526C11.4829 20.0877 11.4707 20.0205 11.4862 19.9511C11.5044 19.8701 11.5452 19.81 11.6087 19.7709L13.6812 18.4913C13.7658 18.4391 13.8461 18.4194 13.9222 18.4322C13.9983 18.4451 14.0992 18.4824 14.225 18.5443C14.7142 18.8004 15.2478 18.7501 15.8258 18.3932C16.136 18.2017 16.3417 17.975 16.4429 17.7132C16.7192 17.008 16.4669 16.6452 16.3277 16.3723L14.9081 17.2467Z" fill="white"/>
    </g>
    <path d="M39.6853 21.6799C39.741 21.6799 39.7891 21.7002 39.8297 21.7407C39.8702 21.7813 39.8905 21.8294 39.8905 21.8851V26.7951C39.8905 26.8509 39.8702 26.899 39.8297 26.9396C39.7891 26.9801 39.741 27.0004 39.6853 27.0004H38.1955C38.1398 27.0004 38.0917 26.9801 38.0511 26.9396C38.0106 26.899 37.9903 26.8509 37.9903 26.7951V23.3217H36.4702V26.7951C36.4702 26.8509 36.4499 26.899 36.4094 26.9396C36.3689 26.9801 36.3207 27.0004 36.265 27.0004H34.7753C34.7195 27.0004 34.6714 26.9826 34.6309 26.9472C34.5903 26.9066 34.57 26.856 34.57 26.7951V21.8851C34.57 21.8294 34.5903 21.7813 34.6309 21.7407C34.6714 21.7002 34.7195 21.6799 34.7753 21.6799H39.6853ZM44.4631 21.6799C44.9394 21.6799 45.3549 21.761 45.7096 21.9231C46.0643 22.0853 46.3354 22.3057 46.5229 22.5844C46.7104 22.8631 46.8041 23.1747 46.8041 23.5193C46.8041 24.0868 46.6267 24.5327 46.2721 24.857C45.9174 25.1762 45.3144 25.3358 44.4631 25.3358H43.4598V26.7951C43.4598 26.8509 43.4396 26.899 43.399 26.9396C43.3585 26.9801 43.3103 27.0004 43.2546 27.0004H41.6205C41.5647 27.0004 41.5166 26.9801 41.4761 26.9396C41.4355 26.899 41.4152 26.8509 41.4152 26.7951V21.8851C41.4152 21.8294 41.4355 21.7813 41.4761 21.7407C41.5166 21.7002 41.5647 21.6799 41.6205 21.6799H44.4631ZM44.4327 23.9297C44.5543 23.9297 44.6506 23.8942 44.7215 23.8233C44.7925 23.7473 44.8279 23.6485 44.8279 23.5269C44.8279 23.4002 44.7925 23.2963 44.7215 23.2153C44.6506 23.1342 44.5543 23.0936 44.4327 23.0936H43.4674V23.9297H44.4327ZM52.9728 24.8038C52.9728 25.579 52.7144 26.1516 52.1976 26.5215C51.6858 26.8914 51.0017 27.0764 50.1454 27.0764C49.2891 27.0764 48.6025 26.8914 48.0856 26.5215C47.5739 26.1516 47.318 25.574 47.318 24.7886V23.8917C47.318 23.3749 47.4396 22.9467 47.6828 22.6072C47.9311 22.2626 48.268 22.0093 48.6937 21.8471C49.1193 21.685 49.6032 21.6039 50.1454 21.6039C50.6876 21.6039 51.169 21.685 51.5895 21.8471C52.0152 22.0093 52.3521 22.2601 52.6004 22.5996C52.8487 22.9391 52.9728 23.3647 52.9728 23.8765V24.8038ZM49.3701 24.9482C49.3701 25.1559 49.4385 25.3156 49.5754 25.427C49.7172 25.5385 49.9073 25.5942 50.1454 25.5942C50.3836 25.5942 50.571 25.5385 50.7079 25.427C50.8497 25.3105 50.9207 25.1483 50.9207 24.9406V23.7397C50.9207 23.5319 50.8497 23.3723 50.7079 23.2609C50.571 23.1443 50.3836 23.086 50.1454 23.086C49.9073 23.086 49.7172 23.1418 49.5754 23.2533C49.4385 23.3647 49.3701 23.5243 49.3701 23.7321V24.9482ZM55.5921 21.6799C55.6478 21.6799 55.696 21.7002 55.7365 21.7407C55.777 21.7813 55.7973 21.8294 55.7973 21.8851V24.3477L57.4542 21.8319C57.5303 21.7306 57.6291 21.6799 57.7507 21.6799H58.982C59.0377 21.6799 59.0858 21.7002 59.1264 21.7407C59.1669 21.7813 59.1872 21.8294 59.1872 21.8851V26.7951C59.1872 26.8509 59.1669 26.899 59.1264 26.9396C59.0858 26.9801 59.0377 27.0004 58.982 27.0004H57.5683C57.5125 27.0004 57.4644 26.9801 57.4238 26.9396C57.3833 26.899 57.363 26.8509 57.363 26.7951V24.4998L55.7061 26.8408C55.625 26.9472 55.5237 27.0004 55.4021 27.0004H54.1784C54.1226 27.0004 54.0745 26.9801 54.034 26.9396C53.9934 26.899 53.9732 26.8509 53.9732 26.7951V21.8851C53.9732 21.8294 53.9934 21.7813 54.034 21.7407C54.0745 21.7002 54.1226 21.6799 54.1784 21.6799H55.5921ZM64.9835 24.3401C65.0696 24.3655 65.171 24.4263 65.2875 24.5226C65.4091 24.6188 65.513 24.7455 65.5992 24.9026C65.6904 25.0546 65.736 25.2218 65.736 25.4042C65.736 25.7488 65.622 26.0478 65.3939 26.3011C65.171 26.5494 64.8594 26.7419 64.4591 26.8788C64.0588 27.0105 63.6053 27.0764 63.0985 27.0764C62.4956 27.0764 61.9965 26.9928 61.6012 26.8256C61.2111 26.6533 60.9248 26.4455 60.7424 26.2023C60.565 25.9591 60.4763 25.7235 60.4763 25.4954C60.4763 25.4448 60.4915 25.4042 60.5219 25.3738C60.5574 25.3434 60.5979 25.3282 60.6435 25.3282H62.3081C62.3638 25.3282 62.4221 25.3586 62.4829 25.4194C62.5538 25.4904 62.6248 25.5385 62.6957 25.5638C62.7667 25.5892 62.9035 25.6018 63.1061 25.6018C63.2784 25.6018 63.4178 25.574 63.5242 25.5182C63.6306 25.4625 63.6838 25.3814 63.6838 25.275C63.6838 25.199 63.6331 25.1382 63.5318 25.0926C63.4304 25.0419 63.286 25.0166 63.0985 25.0166H62.3005C62.2447 25.0166 62.1966 24.9963 62.1561 24.9558C62.1155 24.9153 62.0953 24.8671 62.0953 24.8114V23.8765C62.0953 23.8208 62.1155 23.7726 62.1561 23.7321C62.1966 23.6916 62.2447 23.6713 62.3005 23.6713H63.0985C63.286 23.6713 63.4304 23.6485 63.5318 23.6029C63.6331 23.5522 63.6838 23.4889 63.6838 23.4129C63.6838 23.3065 63.6306 23.2254 63.5242 23.1696C63.4178 23.1139 63.2784 23.086 63.1061 23.086C62.9035 23.086 62.7667 23.0987 62.6957 23.124C62.6248 23.1494 62.5538 23.1975 62.4829 23.2685C62.4221 23.3293 62.3638 23.3597 62.3081 23.3597H60.6435C60.5979 23.3597 60.5574 23.3445 60.5219 23.3141C60.4915 23.2837 60.4763 23.2431 60.4763 23.1924C60.4763 22.9644 60.565 22.7288 60.7424 22.4856C60.9248 22.2373 61.2111 22.0296 61.6012 21.8623C61.9965 21.6901 62.4956 21.6039 63.0985 21.6039C63.6053 21.6039 64.0588 21.6723 64.4591 21.8091C64.8594 21.9409 65.171 22.136 65.3939 22.3944C65.622 22.6477 65.736 22.9467 65.736 23.2913C65.736 23.4737 65.6929 23.6409 65.6068 23.7929C65.5206 23.9449 65.4167 24.0691 65.2951 24.1653C65.1786 24.2565 65.0747 24.3148 64.9835 24.3401ZM71.6919 24.2261C71.8895 24.2869 72.0593 24.4212 72.2011 24.629C72.343 24.8317 72.414 25.0647 72.414 25.3282C72.414 25.8907 72.2315 26.3112 71.8667 26.5899C71.5019 26.8636 70.9698 27.0004 70.2706 27.0004H67.1391C67.0834 27.0004 67.0352 26.9801 66.9947 26.9396C66.9542 26.899 66.9339 26.8509 66.9339 26.7951V21.8851C66.9339 21.8294 66.9542 21.7813 66.9947 21.7407C67.0352 21.7002 67.0834 21.6799 67.1391 21.6799H70.1946C70.9141 21.6799 71.4436 21.8117 71.7831 22.0752C72.1277 22.3336 72.2999 22.7263 72.2999 23.2533V23.2761C72.2999 23.5193 72.2341 23.727 72.1023 23.8993C71.9706 24.0716 71.8338 24.1805 71.6919 24.2261ZM70.2402 23.3217C70.2402 23.2305 70.2123 23.1519 70.1566 23.086C70.1059 23.0202 70.0299 22.9872 69.9285 22.9872H68.9101V23.6789H69.9285C70.0299 23.6789 70.1059 23.6434 70.1566 23.5725C70.2123 23.4965 70.2402 23.4129 70.2402 23.3217ZM70.0122 25.6931C70.1287 25.6931 70.2148 25.6551 70.2706 25.579C70.3314 25.498 70.3618 25.4093 70.3618 25.313V25.3054C70.3618 25.2092 70.3288 25.1255 70.263 25.0546C70.2022 24.9837 70.1186 24.9482 70.0122 24.9482H68.9101V25.6931H70.0122ZM78.8031 24.8038C78.8031 25.579 78.5447 26.1516 78.0279 26.5215C77.5161 26.8914 76.832 27.0764 75.9757 27.0764C75.1193 27.0764 74.4328 26.8914 73.9159 26.5215C73.4041 26.1516 73.1482 25.574 73.1482 24.7886V23.8917C73.1482 23.3749 73.2699 22.9467 73.5131 22.6072C73.7614 22.2626 74.0983 22.0093 74.524 21.8471C74.9496 21.685 75.4335 21.6039 75.9757 21.6039C76.5179 21.6039 76.9992 21.685 77.4198 21.8471C77.8454 22.0093 78.1824 22.2601 78.4307 22.5996C78.679 22.9391 78.8031 23.3647 78.8031 23.8765V24.8038ZM75.2004 24.9482C75.2004 25.1559 75.2688 25.3156 75.4056 25.427C75.5475 25.5385 75.7375 25.5942 75.9757 25.5942C76.2138 25.5942 76.4013 25.5385 76.5381 25.427C76.68 25.3105 76.7509 25.1483 76.7509 24.9406V23.7397C76.7509 23.5319 76.68 23.3723 76.5381 23.2609C76.4013 23.1443 76.2138 23.086 75.9757 23.086C75.7375 23.086 75.5475 23.1418 75.4056 23.2533C75.2688 23.3647 75.2004 23.5243 75.2004 23.7321V24.9482ZM84.569 21.6799C84.6248 21.6799 84.6729 21.7002 84.7134 21.7407C84.754 21.7813 84.7742 21.8294 84.7742 21.8851V25.3662H85.1619C85.2176 25.3662 85.2658 25.3865 85.3063 25.427C85.3468 25.4676 85.3671 25.5157 85.3671 25.5714V27.7376C85.3671 27.7934 85.3468 27.8415 85.3063 27.882C85.2658 27.9226 85.2176 27.9428 85.1619 27.9428H83.9306C83.8748 27.9428 83.8267 27.9226 83.7862 27.882C83.7456 27.8415 83.7254 27.7934 83.7254 27.7376V27.0004H81.1335V27.7376C81.1335 27.7934 81.1133 27.8415 81.0727 27.882C81.0322 27.9226 80.9841 27.9428 80.9283 27.9428H79.7046C79.6489 27.9428 79.6007 27.9226 79.5602 27.882C79.5197 27.8466 79.4994 27.7984 79.4994 27.7376V25.5714C79.4994 25.5157 79.5197 25.4676 79.5602 25.427C79.6007 25.3865 79.6489 25.3662 79.7046 25.3662H79.8262C79.9934 25.3662 80.1227 25.2218 80.2139 24.933C80.3051 24.6442 80.3507 24.1147 80.3507 23.3445V21.8851C80.3507 21.8294 80.3709 21.7813 80.4115 21.7407C80.452 21.7002 80.5002 21.6799 80.5559 21.6799H84.569ZM82.1748 23.4965C82.1748 23.912 82.152 24.2692 82.1064 24.5682C82.0608 24.8621 81.9848 25.1281 81.8784 25.3662H82.9501V23.2381H82.1748V23.4965ZM88.1916 24.9482C88.1916 25.1559 88.26 25.3156 88.3968 25.427C88.5387 25.5385 88.7287 25.5942 88.9668 25.5942C89.1796 25.5942 89.3367 25.5588 89.4381 25.4878C89.5394 25.4169 89.6255 25.3105 89.6965 25.1686C89.7624 25.0369 89.851 24.971 89.9625 24.971H91.6042C91.6498 24.971 91.6879 24.9887 91.7183 25.0242C91.7537 25.0546 91.7715 25.0926 91.7715 25.1382C91.7715 25.4473 91.6676 25.7513 91.4598 26.0503C91.2521 26.3442 90.9354 26.5899 90.5098 26.7875C90.0892 26.9801 89.5749 27.0764 88.9668 27.0764C88.4246 27.0764 87.9407 26.9953 87.5151 26.8332C87.0945 26.6659 86.7601 26.4126 86.5118 26.0731C86.2635 25.7285 86.1394 25.3004 86.1394 24.7886V23.8917C86.1394 23.3799 86.2635 22.9543 86.5118 22.6148C86.7601 22.2702 87.0945 22.0169 87.5151 21.8547C87.9407 21.6875 88.4246 21.6039 88.9668 21.6039C89.5749 21.6039 90.0892 21.7027 90.5098 21.9003C90.9354 22.0929 91.2521 22.3386 91.4598 22.6376C91.6676 22.9315 91.7715 23.233 91.7715 23.5421C91.7715 23.5877 91.7537 23.6282 91.7183 23.6637C91.6879 23.6941 91.6498 23.7093 91.6042 23.7093H89.9625C89.851 23.7093 89.7624 23.6434 89.6965 23.5117C89.6255 23.3698 89.5394 23.2634 89.4381 23.1924C89.3367 23.1215 89.1796 23.086 88.9668 23.086C88.7287 23.086 88.5387 23.1418 88.3968 23.2533C88.26 23.3647 88.1916 23.5243 88.1916 23.7321V24.9482ZM97.9706 21.6799C98.0263 21.6799 98.0745 21.7002 98.115 21.7407C98.1556 21.7813 98.1758 21.8294 98.1758 21.8851V23.1088C98.1758 23.1646 98.1556 23.2127 98.115 23.2533C98.0745 23.2938 98.0263 23.3141 97.9706 23.3141H96.3365V26.7951C96.3365 26.8509 96.3162 26.899 96.2757 26.9396C96.2351 26.9801 96.187 27.0004 96.1313 27.0004H94.5655C94.5098 27.0004 94.4616 26.9801 94.4211 26.9396C94.3806 26.899 94.3603 26.8509 94.3603 26.7951V23.3141H92.7262C92.6704 23.3141 92.6223 23.2938 92.5818 23.2533C92.5412 23.2127 92.521 23.1646 92.521 23.1088V21.8851C92.521 21.8294 92.5412 21.7813 92.5818 21.7407C92.6223 21.7002 92.6704 21.6799 92.7262 21.6799H97.9706ZM103.98 24.2261C104.177 24.2869 104.347 24.4212 104.489 24.629C104.631 24.8317 104.702 25.0647 104.702 25.3282C104.702 25.8907 104.519 26.3112 104.155 26.5899C103.79 26.8636 103.258 27.0004 102.558 27.0004H99.427C99.3712 27.0004 99.3231 26.9801 99.2825 26.9396C99.242 26.899 99.2217 26.8509 99.2217 26.7951V21.8851C99.2217 21.8294 99.242 21.7813 99.2825 21.7407C99.3231 21.7002 99.3712 21.6799 99.427 21.6799H102.482C103.202 21.6799 103.731 21.8117 104.071 22.0752C104.416 22.3336 104.588 22.7263 104.588 23.2533V23.2761C104.588 23.5193 104.522 23.727 104.39 23.8993C104.258 24.0716 104.122 24.1805 103.98 24.2261ZM102.528 23.3217C102.528 23.2305 102.5 23.1519 102.444 23.086C102.394 23.0202 102.318 22.9872 102.216 22.9872H101.198V23.6789H102.216C102.318 23.6789 102.394 23.6434 102.444 23.5725C102.5 23.4965 102.528 23.4129 102.528 23.3217ZM102.3 25.6931C102.417 25.6931 102.503 25.6551 102.558 25.579C102.619 25.498 102.65 25.4093 102.65 25.313V25.3054C102.65 25.2092 102.617 25.1255 102.551 25.0546C102.49 24.9837 102.406 24.9482 102.3 24.9482H101.198V25.6931H102.3ZM107.169 26.7419C107.103 26.9142 106.989 27.0004 106.827 27.0004H105.39C105.345 27.0004 105.304 26.9852 105.269 26.9548C105.238 26.9193 105.223 26.8788 105.223 26.8332L105.231 26.7875L106.888 21.9307C106.908 21.8649 106.946 21.8066 107.002 21.7559C107.058 21.7053 107.134 21.6799 107.23 21.6799H109.343C109.439 21.6799 109.515 21.7053 109.571 21.7559C109.627 21.8066 109.665 21.8649 109.685 21.9307L111.342 26.7875L111.349 26.8332C111.349 26.8788 111.332 26.9193 111.296 26.9548C111.266 26.9852 111.228 27.0004 111.182 27.0004H109.746C109.584 27.0004 109.469 26.9142 109.404 26.7419L109.214 26.2099H107.359L107.169 26.7419ZM108.286 23.1468L107.747 24.7278H108.826L108.286 23.1468Z" fill="#77A6FF"/>
    <path d="M36.683 15.0161C36.6273 15.0161 36.5791 14.9958 36.5386 14.9553C36.4981 14.9148 36.4778 14.8666 36.4778 14.8109V13.876C36.4778 13.8203 36.4981 13.7721 36.5386 13.7316C36.5791 13.6911 36.6273 13.6708 36.683 13.6708H37.9219C37.9067 13.4833 37.8307 13.3389 37.6939 13.2376C37.5571 13.1362 37.3772 13.0856 37.1543 13.0856C36.7388 13.0856 36.4449 13.2274 36.2726 13.5112C36.227 13.5821 36.1864 13.6328 36.151 13.6632C36.1155 13.6936 36.0674 13.7088 36.0066 13.7088H34.5168C34.4712 13.7088 34.4307 13.6936 34.3952 13.6632C34.3648 13.6277 34.3496 13.5872 34.3496 13.5416C34.3496 13.2426 34.4636 12.9437 34.6917 12.6447C34.9197 12.3407 35.2465 12.0924 35.6721 11.8999C36.0978 11.7022 36.5918 11.6034 37.1543 11.6034C37.6964 11.6034 38.1778 11.687 38.5984 11.8542C39.024 12.0164 39.361 12.2698 39.6093 12.6143C39.8576 12.9538 39.9817 13.3794 39.9817 13.8912V14.7881C39.9817 15.2999 39.8576 15.728 39.6093 16.0726C39.361 16.4121 39.024 16.6655 38.5984 16.8327C38.1778 16.9948 37.6964 17.0759 37.1543 17.0759C36.5918 17.0759 36.0978 16.9796 35.6721 16.7871C35.2465 16.5894 34.9197 16.3412 34.6917 16.0422C34.4636 15.7382 34.3496 15.4367 34.3496 15.1377C34.3496 15.0921 34.3648 15.0541 34.3952 15.0237C34.4307 14.9882 34.4712 14.9705 34.5168 14.9705H36.0066C36.0674 14.9705 36.1155 14.9857 36.151 15.0161C36.1864 15.0465 36.227 15.0972 36.2726 15.1681C36.4449 15.4519 36.7388 15.5938 37.1543 15.5938C37.3772 15.5938 37.5571 15.5431 37.6939 15.4417C37.8307 15.3404 37.9067 15.1985 37.9219 15.0161H36.683ZM46.6673 14.3093C46.6673 14.9528 46.4697 15.4747 46.0744 15.875C45.6792 16.2702 45.1497 16.5261 44.4859 16.6426V17.0379C44.4859 17.0936 44.4656 17.1418 44.4251 17.1823C44.3846 17.2228 44.3364 17.2431 44.2807 17.2431H43.095C43.0393 17.2431 42.9911 17.2228 42.9506 17.1823C42.91 17.1418 42.8898 17.0936 42.8898 17.0379V16.635C42.2361 16.5134 41.7142 16.2499 41.324 15.8446C40.9389 15.4392 40.7464 14.9274 40.7464 14.3093C40.7464 13.6911 40.9415 13.192 41.3316 12.8119C41.7269 12.4268 42.2463 12.176 42.8898 12.0595V11.497C42.8898 11.4413 42.91 11.3931 42.9506 11.3526C42.9911 11.3121 43.0393 11.2918 43.095 11.2918H44.2807C44.3364 11.2918 44.3846 11.3121 44.4251 11.3526C44.4656 11.3931 44.4859 11.4413 44.4859 11.497V12.0595C45.1446 12.1709 45.6716 12.4192 46.0668 12.8043C46.4671 13.1894 46.6673 13.6911 46.6673 14.3093ZM42.3045 14.3093C42.3045 14.8312 42.5123 15.1783 42.9278 15.3505V13.344C42.5123 13.5112 42.3045 13.8329 42.3045 14.3093ZM45.0712 14.3169C45.0712 13.8507 44.8634 13.5264 44.4479 13.344V15.3505C44.6405 15.2796 44.7925 15.1555 44.9039 14.9781C45.0154 14.8008 45.0712 14.5803 45.0712 14.3169ZM53.1249 14.3093C53.1249 14.9528 52.9272 15.4747 52.532 15.875C52.1368 16.2702 51.6073 16.5261 50.9435 16.6426V17.0379C50.9435 17.0936 50.9232 17.1418 50.8827 17.1823C50.8421 17.2228 50.794 17.2431 50.7383 17.2431H49.5526C49.4968 17.2431 49.4487 17.2228 49.4081 17.1823C49.3676 17.1418 49.3473 17.0936 49.3473 17.0379V16.635C48.6937 16.5134 48.1718 16.2499 47.7816 15.8446C47.3965 15.4392 47.204 14.9274 47.204 14.3093C47.204 13.6911 47.399 13.192 47.7892 12.8119C48.1844 12.4268 48.7038 12.176 49.3473 12.0595V11.497C49.3473 11.4413 49.3676 11.3931 49.4081 11.3526C49.4487 11.3121 49.4968 11.2918 49.5526 11.2918H50.7383C50.794 11.2918 50.8421 11.3121 50.8827 11.3526C50.9232 11.3931 50.9435 11.4413 50.9435 11.497V12.0595C51.6022 12.1709 52.1292 12.4192 52.5244 12.8043C52.9247 13.1894 53.1249 13.6911 53.1249 14.3093ZM48.7621 14.3093C48.7621 14.8312 48.9698 15.1783 49.3853 15.3505V13.344C48.9698 13.5112 48.7621 13.8329 48.7621 14.3093ZM51.5287 14.3169C51.5287 13.8507 51.321 13.5264 50.9055 13.344V15.3505C51.098 15.2796 51.25 15.1555 51.3615 14.9781C51.473 14.8008 51.5287 14.5803 51.5287 14.3169ZM59.0656 15.5178C59.1213 15.5178 59.1695 15.538 59.21 15.5786C59.2505 15.6191 59.2708 15.6672 59.2708 15.723V16.7947C59.2708 16.8504 59.2505 16.8985 59.21 16.9391C59.1695 16.9796 59.1213 16.9999 59.0656 16.9999H54.262C54.2062 16.9999 54.1581 16.9796 54.1176 16.9391C54.077 16.8985 54.0568 16.8504 54.0568 16.7947V11.8847C54.0568 11.8289 54.077 11.7808 54.1176 11.7402C54.1581 11.6997 54.2062 11.6794 54.262 11.6794H58.9896C59.0453 11.6794 59.0934 11.6997 59.134 11.7402C59.1745 11.7808 59.1948 11.8289 59.1948 11.8847V12.9563C59.1948 13.0121 59.1745 13.0602 59.134 13.1008C59.0934 13.1413 59.0453 13.1616 58.9896 13.1616H56.0329V13.6404H58.5715C58.6273 13.6404 58.6754 13.6607 58.716 13.7012C58.7565 13.7417 58.7768 13.7899 58.7768 13.8456V14.8337C58.7768 14.8894 58.7565 14.9376 58.716 14.9781C58.6754 15.0186 58.6273 15.0389 58.5715 15.0389H56.0329V15.5178H59.0656ZM66.1996 16.7339C66.2199 16.7643 66.23 16.7972 66.23 16.8327C66.23 16.8783 66.2123 16.9188 66.1768 16.9543C66.1464 16.9847 66.1084 16.9999 66.0628 16.9999H64.1018C63.9853 16.9999 63.8941 16.9593 63.8282 16.8783L62.6577 15.1833H62.4297V16.7947C62.4297 16.8504 62.4094 16.8985 62.3689 16.9391C62.3283 16.9796 62.2802 16.9999 62.2245 16.9999H60.6587C60.603 16.9999 60.5549 16.9796 60.5143 16.9391C60.4738 16.8985 60.4535 16.8504 60.4535 16.7947V11.8847C60.4535 11.8289 60.4738 11.7808 60.5143 11.7402C60.5549 11.6997 60.603 11.6794 60.6587 11.6794H62.2245C62.2802 11.6794 62.3283 11.6997 62.3689 11.7402C62.4094 11.7808 62.4297 11.8289 62.4297 11.8847V13.4504H62.5969L63.7066 11.8086C63.7826 11.7225 63.8763 11.6794 63.9878 11.6794H65.8196C65.8652 11.6794 65.9032 11.6972 65.9336 11.7326C65.9691 11.763 65.9868 11.801 65.9868 11.8466C65.9868 11.8872 65.9741 11.9227 65.9488 11.9531L64.1474 14.1496L66.1996 16.7339ZM72.1403 11.6794C72.1961 11.6794 72.2442 11.6997 72.2847 11.7402C72.3253 11.7808 72.3455 11.8289 72.3455 11.8847V13.1084C72.3455 13.1641 72.3253 13.2122 72.2847 13.2528C72.2442 13.2933 72.1961 13.3136 72.1403 13.3136H70.5062V16.7947C70.5062 16.8504 70.4859 16.8985 70.4454 16.9391C70.4049 16.9796 70.3567 16.9999 70.301 16.9999H68.7352C68.6795 16.9999 68.6314 16.9796 68.5908 16.9391C68.5503 16.8985 68.53 16.8504 68.53 16.7947V13.3136H66.8959C66.8402 13.3136 66.792 13.2933 66.7515 13.2528C66.7109 13.2122 66.6907 13.1641 66.6907 13.1084V11.8847C66.6907 11.8289 66.7109 11.7808 66.7515 11.7402C66.792 11.6997 66.8402 11.6794 66.8959 11.6794H72.1403ZM74.9648 11.6794C75.0205 11.6794 75.0687 11.6997 75.1092 11.7402C75.1497 11.7808 75.17 11.8289 75.17 11.8847V14.3473L76.827 11.8314C76.903 11.7301 77.0018 11.6794 77.1234 11.6794H78.3547C78.4104 11.6794 78.4586 11.6997 78.4991 11.7402C78.5396 11.7808 78.5599 11.8289 78.5599 11.8847V16.7947C78.5599 16.8504 78.5396 16.8985 78.4991 16.9391C78.4586 16.9796 78.4104 16.9999 78.3547 16.9999H76.941C76.8852 16.9999 76.8371 16.9796 76.7965 16.9391C76.756 16.8985 76.7357 16.8504 76.7357 16.7947V14.4993L75.0788 16.8403C74.9977 16.9467 74.8964 16.9999 74.7748 16.9999H73.5511C73.4953 16.9999 73.4472 16.9796 73.4067 16.9391C73.3661 16.8985 73.3459 16.8504 73.3459 16.7947V11.8847C73.3459 11.8289 73.3661 11.7808 73.4067 11.7402C73.4472 11.6997 73.4953 11.6794 73.5511 11.6794H74.9648ZM84.607 14.2256C84.8046 14.2865 84.9744 14.4207 85.1163 14.6285C85.2582 14.8312 85.3291 15.0643 85.3291 15.3277C85.3291 15.8902 85.1467 16.3108 84.7818 16.5894C84.417 16.8631 83.885 16.9999 83.1857 16.9999H80.0543C79.9985 16.9999 79.9504 16.9796 79.9098 16.9391C79.8693 16.8985 79.849 16.8504 79.849 16.7947V11.8847C79.849 11.8289 79.8693 11.7808 79.9098 11.7402C79.9504 11.6997 79.9985 11.6794 80.0543 11.6794H83.1097C83.8292 11.6794 84.3587 11.8112 84.6982 12.0747C85.0428 12.3331 85.2151 12.7258 85.2151 13.2528V13.2756C85.2151 13.5188 85.1492 13.7265 85.0175 13.8988C84.8857 14.0711 84.7489 14.18 84.607 14.2256ZM83.1553 13.3212C83.1553 13.23 83.1274 13.1514 83.0717 13.0856C83.021 13.0197 82.945 12.9867 82.8437 12.9867H81.8252V13.6784H82.8437C82.945 13.6784 83.021 13.6429 83.0717 13.572C83.1274 13.496 83.1553 13.4124 83.1553 13.3212ZM82.9273 15.6926C83.0438 15.6926 83.13 15.6546 83.1857 15.5786C83.2465 15.4975 83.2769 15.4088 83.2769 15.3125V15.3049C83.2769 15.2087 83.244 15.1251 83.1781 15.0541C83.1173 14.9832 83.0337 14.9477 82.9273 14.9477H81.8252V15.6926H82.9273ZM91.4218 11.6794C91.4776 11.6794 91.5257 11.6997 91.5662 11.7402C91.6068 11.7808 91.627 11.8289 91.627 11.8847V16.7947C91.627 16.8504 91.6068 16.8985 91.5662 16.9391C91.5257 16.9796 91.4776 16.9999 91.4218 16.9999H89.8561C89.8004 16.9999 89.7522 16.9796 89.7117 16.9391C89.6711 16.8985 89.6509 16.8504 89.6509 16.7947V15.1757H88.1308V16.7947C88.1308 16.8504 88.1105 16.8985 88.0699 16.9391C88.0294 16.9796 87.9813 16.9999 87.9255 16.9999H86.3598C86.3041 16.9999 86.2559 16.9821 86.2154 16.9467C86.1749 16.9061 86.1546 16.8555 86.1546 16.7947V11.8847C86.1546 11.8289 86.1749 11.7808 86.2154 11.7402C86.2559 11.6997 86.3041 11.6794 86.3598 11.6794H87.9255C87.9813 11.6794 88.0294 11.6997 88.0699 11.7402C88.1105 11.7808 88.1308 11.8289 88.1308 11.8847V13.4428H89.6509V11.8847C89.6509 11.8289 89.6711 11.7808 89.7117 11.7402C89.7522 11.6997 89.8004 11.6794 89.8561 11.6794H91.4218ZM98.1758 14.8033C98.1758 15.5786 97.9174 16.1511 97.4006 16.521C96.8888 16.8909 96.2047 17.0759 95.3484 17.0759C94.492 17.0759 93.8055 16.8909 93.2886 16.521C92.7768 16.1511 92.521 15.5735 92.521 14.7881V13.8912C92.521 13.3744 92.6426 12.9462 92.8858 12.6067C93.1341 12.2622 93.471 12.0088 93.8967 11.8466C94.3223 11.6845 94.8062 11.6034 95.3484 11.6034C95.8906 11.6034 96.3719 11.6845 96.7925 11.8466C97.2181 12.0088 97.5551 12.2596 97.8034 12.5991C98.0517 12.9386 98.1758 13.3642 98.1758 13.876V14.8033ZM94.5731 14.9477C94.5731 15.1555 94.6415 15.3151 94.7783 15.4265C94.9202 15.538 95.1102 15.5938 95.3484 15.5938C95.5865 15.5938 95.774 15.538 95.9108 15.4265C96.0527 15.31 96.1237 15.1479 96.1237 14.9401V13.7392C96.1237 13.5315 96.0527 13.3718 95.9108 13.2604C95.774 13.1438 95.5865 13.0856 95.3484 13.0856C95.1102 13.0856 94.9202 13.1413 94.7783 13.2528C94.6415 13.3642 94.5731 13.5239 94.5731 13.7316V14.9477ZM102.019 16.7947C102.019 16.8504 101.999 16.8985 101.958 16.9391C101.917 16.9796 101.869 16.9999 101.814 16.9999H100.248C100.192 16.9999 100.144 16.9796 100.103 16.9391C100.063 16.8985 100.043 16.8504 100.043 16.7947V11.8847C100.043 11.8289 100.063 11.7808 100.103 11.7402C100.144 11.6997 100.192 11.6794 100.248 11.6794H104.375C104.431 11.6794 104.479 11.6997 104.519 11.7402C104.56 11.7808 104.58 11.8289 104.58 11.8847V13.1084C104.58 13.1641 104.56 13.2122 104.519 13.2528C104.479 13.2933 104.431 13.3136 104.375 13.3136H102.011L102.019 16.7947ZM111.091 14.8033C111.091 15.5786 110.833 16.1511 110.316 16.521C109.804 16.8909 109.12 17.0759 108.264 17.0759C107.407 17.0759 106.721 16.8909 106.204 16.521C105.692 16.1511 105.436 15.5735 105.436 14.7881V13.8912C105.436 13.3744 105.558 12.9462 105.801 12.6067C106.049 12.2622 106.386 12.0088 106.812 11.8466C107.237 11.6845 107.721 11.6034 108.264 11.6034C108.806 11.6034 109.287 11.6845 109.708 11.8466C110.133 12.0088 110.47 12.2596 110.719 12.5991C110.967 12.9386 111.091 13.3642 111.091 13.876V14.8033ZM107.488 14.9477C107.488 15.1555 107.557 15.3151 107.693 15.4265C107.835 15.538 108.025 15.5938 108.264 15.5938C108.502 15.5938 108.689 15.538 108.826 15.4265C108.968 15.31 109.039 15.1479 109.039 14.9401V13.7392C109.039 13.5315 108.968 13.3718 108.826 13.2604C108.689 13.1438 108.502 13.0856 108.264 13.0856C108.025 13.0856 107.835 13.1413 107.693 13.2528C107.557 13.3642 107.488 13.5239 107.488 13.7316V14.9477Z" fill="#77A6FF"/>
    <path d="M36.531 4.94783C36.531 5.15558 36.5994 5.31519 36.7362 5.42667C36.8781 5.53814 37.0681 5.59388 37.3063 5.59388C37.5191 5.59388 37.6762 5.55841 37.7775 5.48747C37.8789 5.41653 37.965 5.31013 38.0359 5.16825C38.1018 5.0365 38.1905 4.97063 38.302 4.97063H39.9437C39.9893 4.97063 40.0273 4.98837 40.0577 5.02384C40.0932 5.05424 40.1109 5.09224 40.1109 5.13784C40.1109 5.44694 40.007 5.75096 39.7993 6.04992C39.5915 6.34381 39.2748 6.58957 38.8492 6.78718C38.4286 6.97973 37.9143 7.07601 37.3063 7.07601C36.7641 7.07601 36.2802 6.99493 35.8546 6.83279C35.434 6.66557 35.0996 6.41222 34.8513 6.07272C34.603 5.72816 34.4788 5.29999 34.4788 4.78822V3.89134C34.4788 3.37957 34.603 2.95393 34.8513 2.61443C35.0996 2.26987 35.434 2.01652 35.8546 1.85437C36.2802 1.68716 36.7641 1.60355 37.3063 1.60355C37.9143 1.60355 38.4286 1.70236 38.8492 1.89998C39.2748 2.09252 39.5915 2.33828 39.7993 2.63724C40.007 2.93113 40.1109 3.23262 40.1109 3.54171C40.1109 3.58732 40.0932 3.62785 40.0577 3.66332C40.0273 3.69372 39.9893 3.70893 39.9437 3.70893H38.302C38.1905 3.70893 38.1018 3.64305 38.0359 3.51131C37.965 3.36943 37.8789 3.26302 37.7775 3.19208C37.6762 3.12114 37.5191 3.08567 37.3063 3.08567C37.0681 3.08567 36.8781 3.14141 36.7362 3.25289C36.5994 3.36436 36.531 3.52398 36.531 3.73173V4.94783ZM42.677 1.67956C42.7327 1.67956 42.7808 1.69983 42.8214 1.74036C42.8619 1.7809 42.8822 1.82904 42.8822 1.88477V4.34738L44.5391 1.83157C44.6151 1.73023 44.7139 1.67956 44.8355 1.67956H46.0668C46.1226 1.67956 46.1707 1.69983 46.2112 1.74036C46.2518 1.7809 46.2721 1.82904 46.2721 1.88477V6.79478C46.2721 6.85052 46.2518 6.89866 46.2112 6.93919C46.1707 6.97973 46.1226 7 46.0668 7H44.6531C44.5974 7 44.5492 6.97973 44.5087 6.93919C44.4682 6.89866 44.4479 6.85052 44.4479 6.79478V4.49939L42.791 6.84039C42.7099 6.9468 42.6085 7 42.4869 7H41.2632C41.2075 7 41.1594 6.97973 41.1188 6.93919C41.0783 6.89866 41.058 6.85052 41.058 6.79478V1.88477C41.058 1.82904 41.0783 1.7809 41.1188 1.74036C41.1594 1.69983 41.2075 1.67956 41.2632 1.67956H42.677ZM49.4461 4.94783C49.4461 5.15558 49.5146 5.31519 49.6514 5.42667C49.7932 5.53814 49.9833 5.59388 50.2214 5.59388C50.4342 5.59388 50.5913 5.55841 50.6927 5.48747C50.794 5.41653 50.8801 5.31013 50.9511 5.16825C51.0169 5.0365 51.1056 4.97063 51.2171 4.97063H52.8588C52.9044 4.97063 52.9424 4.98837 52.9728 5.02384C53.0083 5.05424 53.026 5.09224 53.026 5.13784C53.026 5.44694 52.9222 5.75096 52.7144 6.04992C52.5067 6.34381 52.19 6.58957 51.7643 6.78718C51.3438 6.97973 50.8295 7.07601 50.2214 7.07601C49.6792 7.07601 49.1953 6.99493 48.7697 6.83279C48.3491 6.66557 48.0147 6.41222 47.7664 6.07272C47.5181 5.72816 47.394 5.29999 47.394 4.78822V3.89134C47.394 3.37957 47.5181 2.95393 47.7664 2.61443C48.0147 2.26987 48.3491 2.01652 48.7697 1.85437C49.1953 1.68716 49.6792 1.60355 50.2214 1.60355C50.8295 1.60355 51.3438 1.70236 51.7643 1.89998C52.19 2.09252 52.5067 2.33828 52.7144 2.63724C52.9222 2.93113 53.026 3.23262 53.026 3.54171C53.026 3.58732 53.0083 3.62785 52.9728 3.66332C52.9424 3.69372 52.9044 3.70893 52.8588 3.70893H51.2171C51.1056 3.70893 51.0169 3.64305 50.9511 3.51131C50.8801 3.36943 50.794 3.26302 50.6927 3.19208C50.5913 3.12114 50.4342 3.08567 50.2214 3.08567C49.9833 3.08567 49.7932 3.14141 49.6514 3.25289C49.5146 3.36436 49.4461 3.52398 49.4461 3.73173V4.94783ZM59.2252 1.67956C59.2809 1.67956 59.3291 1.69983 59.3696 1.74036C59.4101 1.7809 59.4304 1.82904 59.4304 1.88477V3.10848C59.4304 3.16421 59.4101 3.21235 59.3696 3.25289C59.3291 3.29342 59.2809 3.31369 59.2252 3.31369H57.5911V6.79478C57.5911 6.85052 57.5708 6.89866 57.5303 6.93919C57.4897 6.97973 57.4416 7 57.3858 7H55.8201C55.7644 7 55.7162 6.97973 55.6757 6.93919C55.6352 6.89866 55.6149 6.85052 55.6149 6.79478V3.31369H53.9808C53.925 3.31369 53.8769 3.29342 53.8363 3.25289C53.7958 3.21235 53.7755 3.16421 53.7755 3.10848V1.88477C53.7755 1.82904 53.7958 1.7809 53.8363 1.74036C53.8769 1.69983 53.925 1.67956 53.9808 1.67956H59.2252ZM65.5231 5.51788C65.5789 5.51788 65.627 5.53814 65.6676 5.57868C65.7081 5.61922 65.7284 5.66736 65.7284 5.72309V6.79478C65.7284 6.85052 65.7081 6.89866 65.6676 6.93919C65.627 6.97973 65.5789 7 65.5231 7H60.7195C60.6638 7 60.6157 6.97973 60.5751 6.93919C60.5346 6.89866 60.5143 6.85052 60.5143 6.79478V1.88477C60.5143 1.82904 60.5346 1.7809 60.5751 1.74036C60.6157 1.69983 60.6638 1.67956 60.7195 1.67956H65.4471C65.5029 1.67956 65.551 1.69983 65.5916 1.74036C65.6321 1.7809 65.6524 1.82904 65.6524 1.88477V2.95646C65.6524 3.0122 65.6321 3.06034 65.5916 3.10088C65.551 3.14141 65.5029 3.16168 65.4471 3.16168H62.4905V3.64052H65.0291C65.0848 3.64052 65.133 3.66079 65.1735 3.70133C65.2141 3.74186 65.2343 3.79 65.2343 3.84574V4.83382C65.2343 4.88956 65.2141 4.93769 65.1735 4.97823C65.133 5.01877 65.0848 5.03904 65.0291 5.03904H62.4905V5.51788H65.5231ZM70.5138 1.88477C70.5898 1.74796 70.6987 1.67956 70.8406 1.67956H72.2315C72.2873 1.67956 72.3354 1.69983 72.3759 1.74036C72.4165 1.7809 72.4368 1.82904 72.4368 1.88477V6.79478C72.4368 6.85052 72.4165 6.89866 72.3759 6.93919C72.3354 6.97973 72.2873 7 72.2315 7H70.8558C70.8001 7 70.7519 6.97973 70.7114 6.93919C70.6709 6.89866 70.6506 6.85052 70.6506 6.79478V4.43859L70.0958 5.53308C70.0806 5.56855 70.0451 5.60908 69.9894 5.65469C69.9336 5.70029 69.8627 5.72309 69.7765 5.72309H69.2597C69.1735 5.72309 69.1026 5.70029 69.0469 5.65469C68.9911 5.60908 68.9557 5.56855 68.9405 5.53308L68.3856 4.43859V6.79478C68.3856 6.85052 68.3653 6.89866 68.3248 6.93919C68.2843 6.97973 68.2361 7 68.1804 7H66.8047C66.7489 7 66.7008 6.97973 66.6603 6.93919C66.6197 6.89866 66.5995 6.85052 66.5995 6.79478V1.88477C66.5995 1.82904 66.6197 1.7809 66.6603 1.74036C66.7008 1.69983 66.7489 1.67956 66.8047 1.67956H68.1956C68.3375 1.67956 68.4464 1.74796 68.5224 1.88477L69.5181 3.70893L70.5138 1.88477ZM74.8812 6.74158C74.8153 6.91386 74.7013 7 74.5392 7H73.1026C73.057 7 73.0165 6.9848 72.981 6.9544C72.9506 6.91893 72.9354 6.87839 72.9354 6.83279L72.943 6.78718L74.6 1.93038C74.6202 1.86451 74.6582 1.80623 74.714 1.75556C74.7697 1.70489 74.8457 1.67956 74.942 1.67956H77.055C77.1512 1.67956 77.2273 1.70489 77.283 1.75556C77.3387 1.80623 77.3767 1.86451 77.397 1.93038L79.0539 6.78718L79.0615 6.83279C79.0615 6.87839 79.0438 6.91893 79.0083 6.9544C78.9779 6.9848 78.9399 7 78.8943 7H77.4578C77.2957 7 77.1816 6.91386 77.1158 6.74158L76.9258 6.20953H75.0712L74.8812 6.74158ZM75.9985 3.14648L75.4588 4.72741H76.5381L75.9985 3.14648Z" fill="#77A6FF"/>
    <defs>
        <clipPath id="clip0_22391_186179">
            <rect y="0.000244141" width="28" height="28" rx="4.55088" fill="white"/>
        </clipPath>
    </defs>
</svg>
