<svg width="28" height="28" viewBox="0 0 28 28" fill="none" xmlns="http://www.w3.org/2000/svg">
    <g clip-path="url(#clip0_22391_186226)">
        <rect width="28" height="28" rx="4.55088" fill="#C2D8FA"/>
        <circle cx="10.4461" cy="4.31482" r="0.393076" transform="rotate(-31.63 10.4461 4.31482)" fill="#6498EC" fill-opacity="0.3"/>
        <circle cx="7.74152" cy="2.55156" r="1.1685" transform="rotate(-31.63 7.74152 2.55156)" fill="#6498EC" fill-opacity="0.3"/>
        <circle cx="10.6046" cy="1.16838" r="0.848969" transform="rotate(-31.63 10.6046 1.16838)" fill="#6498EC" fill-opacity="0.3"/>
        <path d="M16.0721 1.05712L10.8295 11.429L8.70607 8.25628C7.72618 6.79219 5.81273 6.78592 5.40641 8.19549L1.37992 18.937L-1.23834 15.025C-1.92498 13.999 -3.58467 11.2691 -4.35914 11.7875L-12.422 17.1838C-13.1965 17.7021 -10.7264 21.0733 -10.0398 22.0992L3.44957 42.2541C4.13621 43.2801 5.32064 43.6915 6.09511 43.1732L33.2058 25.0285C33.9803 24.5101 34.0515 23.2583 33.3648 22.2323L19.2761 1.18191C18.2962 -0.28226 16.4784 -0.352448 16.0721 1.05712Z" fill="#6498EC" fill-opacity="0.19"/>
        <path d="M26.0141 -0.292457L18.1878 8.1529L17.1126 6.42221C16.6165 5.62355 14.8372 6.05693 14.0586 7.13464L7.25923 15.56L5.93353 13.426C5.58586 12.8664 4.81657 11.3389 3.94845 11.8782L-5.08948 17.4928C-5.9576 18.0321 -4.61617 19.8222 -4.2685 20.3818L2.56155 31.3762C2.90921 31.9359 3.89478 31.9524 4.7629 31.4131L35.1521 12.5345C36.0202 11.9952 36.4422 11.1043 36.0945 10.5447L28.961 -0.938296C28.4648 -1.737 26.7928 -1.37016 26.0141 -0.292457Z" fill="#77A6FF"/>
        <circle cx="2.70635" cy="6.55746" r="1.39633" transform="rotate(-31.63 2.70635 6.55746)" fill="#6498EC"/>
        <circle cx="0.699334" cy="9.65898" r="0.848969" transform="rotate(-31.63 0.699334 9.65898)" fill="#6498EC"/>
        <path d="M5.52714 22.815C5.70398 23.1015 5.93418 23.2634 6.21772 23.3006C6.50825 23.3336 6.8177 23.2487 7.14609 23.0459C7.43955 22.8647 7.62595 22.6821 7.70531 22.498C7.78466 22.3139 7.81286 22.0939 7.78991 21.8378C7.76859 21.6001 7.83479 21.4338 7.9885 21.3389L10.2523 19.9412C10.3152 19.9024 10.3827 19.8945 10.4548 19.9176C10.5296 19.9293 10.5864 19.9666 10.6252 20.0295C10.8883 20.4557 11.0039 20.9634 10.9719 21.5525C10.9356 22.1346 10.7081 22.7431 10.2894 23.3779C9.8734 24.0015 9.24617 24.572 8.40773 25.0897C7.66012 25.5512 6.92385 25.8514 6.19892 25.9901C5.47666 26.1176 4.79985 26.0529 4.1685 25.7962C3.53283 25.5324 2.99717 25.0477 2.56153 24.342L1.79808 23.1052C1.36244 22.3995 1.1713 21.7069 1.22468 21.0274C1.27374 20.3409 1.51921 19.7068 1.96111 19.1252C2.40568 18.5323 3.00177 18.005 3.74938 17.5435C4.58782 17.0259 5.38111 16.7243 6.12925 16.6387C6.88006 16.5419 7.52594 16.6112 8.06689 16.8466C8.60353 17.075 9.00341 17.4023 9.26652 17.8285C9.30534 17.8914 9.31539 17.9624 9.29667 18.0415C9.28063 18.1093 9.24117 18.1626 9.17829 18.2014L6.9145 19.599C6.76078 19.6939 6.58244 19.6786 6.37946 19.553C6.16087 19.4178 5.95151 19.3444 5.75138 19.3328C5.55126 19.3213 5.30447 19.4061 5.01101 19.5872C4.68263 19.79 4.46806 20.0286 4.36732 20.3031C4.27356 20.5733 4.3151 20.8516 4.49195 21.1381L5.52714 22.815Z" fill="white"/>
        <path d="M23.7463 5.62903C23.8232 5.58158 23.9068 5.56855 23.9972 5.58994C24.0876 5.61133 24.1565 5.66045 24.204 5.73731L28.3836 12.5079C28.431 12.5848 28.444 12.6684 28.4227 12.7588C28.4013 12.8492 28.3521 12.9182 28.2753 12.9656L26.2211 14.2338C26.1442 14.2813 26.0606 14.2943 25.9702 14.2729C25.8798 14.2515 25.8109 14.2024 25.7634 14.1255L22.8067 9.3358L20.7106 10.6299L23.6673 15.4196C23.7148 15.4965 23.7278 15.5801 23.7064 15.6705C23.685 15.7609 23.6359 15.8299 23.5591 15.8773L21.5049 17.1455C21.428 17.193 21.3465 17.2095 21.2605 17.1951C21.1701 17.1737 21.099 17.1211 21.0472 17.0372L16.8676 10.2666C16.8202 10.1898 16.8072 10.1061 16.8286 10.0157C16.8499 9.92531 16.8991 9.85639 16.9759 9.80894L23.7463 5.62903Z" fill="white"/>
        <path d="M14.9066 17.2463C14.8291 17.2942 14.6045 17.3831 14.5124 17.3601C14.4204 17.3372 14.3014 17.3072 14.2524 17.2278L13.9912 16.8038C13.9422 16.7244 13.9366 16.5515 13.9574 16.459C13.9781 16.3664 14.1658 16.2174 14.2434 16.1695L15.6629 15.2951C15.477 15.0412 15.0692 14.6279 14.5036 14.5736C14.2242 14.5468 13.9294 14.6291 13.6192 14.8206C13.0412 15.1775 12.757 15.632 12.7668 16.1841C12.7657 16.3243 12.7539 16.4313 12.7313 16.5051C12.7087 16.5788 12.6551 16.6418 12.5705 16.694L10.4979 17.9736C10.4345 18.0127 10.3647 18.0259 10.2886 18.0131C10.2152 17.9887 10.1584 17.944 10.1183 17.8791C9.85545 17.4533 9.75123 16.9296 9.80562 16.308C9.85555 15.6791 10.092 15.0448 10.5148 14.405C10.9332 13.758 11.5337 13.1929 12.3162 12.7098C13.0705 12.2441 13.8136 11.9497 14.5458 11.8267C15.2805 11.692 15.972 11.7634 16.6203 12.0409C17.2642 12.3111 17.8112 12.8107 18.2611 13.5396L19.0496 14.8169C19.4995 15.5458 19.7033 16.2622 19.6608 16.9662C19.6138 17.6629 19.3678 18.3132 18.9226 18.9169C18.4801 19.5091 17.8817 20.038 17.1274 20.5037C16.3449 20.9867 15.573 21.274 14.8115 21.3653C14.0456 21.4495 13.3727 21.3766 12.7926 21.1466C12.2081 20.9095 11.7844 20.578 11.5216 20.1523C11.4815 20.0873 11.4692 20.0201 11.4848 19.9507C11.5029 19.8697 11.5437 19.8097 11.6072 19.7705L13.6797 18.491C13.7643 18.4387 13.8446 18.419 13.9207 18.4319C13.9968 18.4447 14.0977 18.482 14.2235 18.5439C14.7127 18.8001 15.2463 18.7497 15.8244 18.3928C16.1345 18.2013 16.3402 17.9747 16.4415 17.7128C16.7177 17.0077 16.4654 16.6448 16.3262 16.372L14.9066 17.2463Z" fill="white"/>
    </g>
    <defs>
        <clipPath id="clip0_22391_186226">
            <rect width="28" height="28" rx="4.55088" fill="white"/>
        </clipPath>
    </defs>
</svg>
