<svg width="70" height="70" viewBox="0 0 70 70" fill="none" xmlns="http://www.w3.org/2000/svg">
<g clip-path="url(#clip0_9429_69607)">
<rect width="70" height="70" rx="11.6431" fill="#C2D8FA"/>
<circle cx="26.725" cy="11.0391" r="1.00566" transform="rotate(-31.63 26.725 11.0391)" fill="#6498EC" fill-opacity="0.3"/>
<circle cx="19.8056" cy="6.52793" r="2.98953" transform="rotate(-31.63 19.8056 6.52793)" fill="#6498EC" fill-opacity="0.3"/>
<circle cx="27.1305" cy="2.98886" r="2.17202" transform="rotate(-31.63 27.1305 2.98886)" fill="#6498EC" fill-opacity="0.3"/>
<path d="M40.1795 2.64303L27.073 28.5727L21.7644 20.6409C19.3147 16.9807 14.5311 16.9651 13.5153 20.489L3.44906 47.3428L-3.09659 37.5627C-4.81318 34.9979 -8.96241 28.173 -10.8986 29.4689L-31.0558 42.9598C-32.9919 44.2556 -26.8167 52.6835 -25.1001 55.2483L8.6232 105.636C10.3398 108.2 13.3009 109.229 15.237 107.933L83.0138 62.5714C84.9499 61.2755 85.1279 58.1459 83.4113 55.5811L48.1896 2.95501C45.7397 -0.705404 41.1953 -0.880877 40.1795 2.64303Z" fill="#6498EC" fill-opacity="0.19"/>
<path d="M65.0358 -0.731203L45.47 20.3822L42.7821 16.0555C41.5417 14.0588 37.0936 15.1423 35.147 17.8365L18.1486 38.9L14.8343 33.565C13.9651 32.1659 12.0419 28.3472 9.8716 29.6955L-12.7232 43.732C-14.8935 45.0803 -11.5399 49.5554 -10.6708 50.9545L6.40436 78.4406C7.27352 79.8397 9.73743 79.8809 11.9077 78.5326L87.8808 31.3361C90.0511 29.9878 91.1059 27.7607 90.2367 26.3616L72.4029 -2.3458C71.1625 -4.34255 66.9824 -3.42546 65.0358 -0.731203Z" fill="#77A6FF"/>
<circle cx="6.92451" cy="16.7764" r="3.57241" transform="rotate(-31.63 6.92451 16.7764)" fill="#6498EC"/>
<circle cx="1.78875" cy="24.7118" r="2.17202" transform="rotate(-31.63 1.78875 24.7118)" fill="#6498EC"/>
<path d="M14.7071 58.0226C15.1596 58.7555 15.7485 59.1696 16.4739 59.2649C17.2172 59.3492 18.0089 59.132 18.8491 58.6133C19.5999 58.1498 20.0768 57.6825 20.2798 57.2115C20.4828 56.7405 20.555 56.1775 20.4962 55.5225C20.4417 54.9142 20.6111 54.4887 21.0044 54.2459L26.7961 50.6702C26.957 50.5709 27.1297 50.5507 27.3142 50.6096C27.5055 50.6396 27.6508 50.735 27.7501 50.8959C28.4233 51.9864 28.719 53.2852 28.6371 54.7924C28.5443 56.2817 27.9622 57.8384 26.8911 59.4626C25.8267 61.0579 24.222 62.5177 22.0769 63.8421C20.1642 65.0229 18.2805 65.7909 16.4258 66.1459C14.578 66.4719 12.8464 66.3065 11.2311 65.6496C9.60484 64.9747 8.23441 63.7346 7.11985 61.9291L5.16661 58.765C4.05206 56.9595 3.56305 55.1875 3.6996 53.449C3.82512 51.6927 4.45315 50.0705 5.58371 48.5824C6.72111 47.0655 8.24616 45.7166 10.1589 44.5357C12.3039 43.2114 14.3335 42.4398 16.2476 42.221C18.1685 41.9733 19.8209 42.1505 21.2049 42.7527C22.5779 43.3371 23.6009 44.1745 24.2741 45.2649C24.3734 45.4258 24.3991 45.6074 24.3512 45.8098C24.3102 45.9833 24.2092 46.1197 24.0483 46.219L18.2566 49.7947C17.8633 50.0375 17.407 49.9982 16.8877 49.6769C16.3285 49.3309 15.7929 49.1431 15.2808 49.1136C14.7688 49.084 14.1374 49.301 13.3867 49.7645C12.5465 50.2832 11.9976 50.8937 11.7398 51.596C11.4999 52.2873 11.6062 52.9993 12.0587 53.7323L14.7071 58.0226Z" fill="white"/>
<path d="M60.3479 14.6376C60.5445 14.5162 60.7585 14.4828 60.9898 14.5375C61.2211 14.5923 61.3974 14.7179 61.5188 14.9146L72.2119 32.2367C72.3333 32.4333 72.3667 32.6473 72.3119 32.8786C72.2572 33.1099 72.1315 33.2862 71.9349 33.4076L66.6794 36.6522C66.4828 36.7736 66.2688 36.807 66.0375 36.7522C65.8063 36.6975 65.6299 36.5718 65.5085 36.3752L57.9439 24.121L52.5812 27.4319L60.1458 39.686C60.2672 39.8827 60.3005 40.0966 60.2458 40.3279C60.1911 40.5592 60.0654 40.7356 59.8688 40.857L54.6133 44.1016C54.4167 44.223 54.2082 44.2653 53.988 44.2284C53.7567 44.1737 53.5748 44.0391 53.4424 43.8246L42.7493 26.5025C42.6279 26.3058 42.5946 26.0919 42.6493 25.8606C42.704 25.6293 42.8297 25.4529 43.0263 25.3315L60.3479 14.6376Z" fill="white"/>
<path d="M37.2673 43.1158C37.0734 43.2354 36.5119 43.4576 36.2818 43.4003C36.0517 43.343 35.7542 43.268 35.6317 43.0696L34.9787 42.0094C34.8562 41.8109 34.8423 41.3788 34.8942 41.1474C34.9461 40.9161 35.4153 40.5434 35.6091 40.4237L39.1581 38.2378C38.6932 37.6029 37.6737 36.5697 36.2598 36.434C35.5612 36.367 34.8242 36.5728 34.0487 37.0515C32.6036 37.9437 31.8933 39.08 31.9178 40.4602C31.9151 40.8107 31.8855 41.0782 31.8289 41.2626C31.7724 41.447 31.6384 41.6045 31.4269 41.735L26.2456 44.9339C26.0869 45.0318 25.9125 45.0647 25.7224 45.0326C25.5387 44.9716 25.3967 44.8599 25.2965 44.6976C24.6394 43.6331 24.3788 42.3239 24.5148 40.7698C24.6396 39.1977 25.2306 37.6119 26.2878 36.0124C27.3338 34.3948 28.8349 32.9822 30.7911 31.7745C32.6769 30.6103 34.5349 29.8743 36.3651 29.5666C38.2019 29.23 39.9307 29.4085 41.5516 30.1022C43.1613 30.7778 44.5286 32.0267 45.6535 33.8489L47.6248 37.0422C48.7496 38.8643 49.2589 40.6554 49.1527 42.4153C49.0353 44.1572 48.4202 45.7829 47.3074 47.2922C46.201 48.7726 44.7049 50.0949 42.8192 51.2591C40.863 52.4668 38.9331 53.1848 37.0295 53.4132C35.1148 53.6236 33.4324 53.4413 31.9822 52.8665C30.5209 52.2737 29.4617 51.445 28.8046 50.3806C28.7044 50.2182 28.6738 50.0503 28.7127 49.8767C28.7581 49.6743 28.8601 49.5241 29.0187 49.4262L34.2 46.2273C34.4115 46.0968 34.6123 46.0475 34.8025 46.0796C34.9927 46.1117 35.2451 46.2051 35.5596 46.3597C36.7825 47.0001 38.1165 46.8742 39.5616 45.982C40.3371 45.5033 40.8513 44.9366 41.1044 44.282C41.7951 42.5191 41.1643 41.612 40.8162 40.9299L37.2673 43.1158Z" fill="white"/>
</g>
<defs>
<clipPath id="clip0_9429_69607">
<rect width="70" height="70" rx="11.6431" fill="white"/>
</clipPath>
</defs>
</svg>
